<svg width="24" height="24" viewBox="0 0 24 24" fill="none" xmlns="http://www.w3.org/2000/svg">
<g clip-path="url(#clip0_97_8)">
<path fill-rule="evenodd" clip-rule="evenodd" d="M23.4157 8.42763C23.4157 6.89678 22.9691 5.54485 22.0866 4.40413C22.283 3.68309 22.4929 2.25448 21.827 0.482841C21.757 0.294516 21.6037 0.147891 21.4127 0.0819658C21.1732 -8.41679e-05 19.8859 -0.297372 17.3058 1.46888C16.2538 1.19177 15.144 1.04918 13.9952 1.04245C12.8504 1.04918 11.7406 1.19177 10.6914 1.46888C8.10859 -0.296022 6.82122 -8.41679e-05 6.58044 0.0819783C6.38941 0.146541 6.23606 0.294516 6.16611 0.484191C5.50159 2.25448 5.71144 3.68309 5.90917 4.40412C5.02537 5.54889 4.57742 6.89948 4.57742 8.42762C4.57742 13.7129 7.35124 15.3918 9.97977 15.9984C9.39865 16.6347 8.78927 17.5629 8.65877 18.7427C7.76152 19.0682 5.43836 19.7193 4.59491 18.1925C4.55725 18.1225 3.67749 16.472 1.9072 16.3415C1.59376 16.3563 0.849862 16.3953 0.644049 17.0208C0.412674 17.7203 1.13774 18.2422 1.49287 18.4884C1.4996 18.4925 2.18969 18.8879 2.66589 20.139C2.678 20.1968 2.96317 21.573 4.35277 22.4084C5.44642 23.0675 6.88176 23.202 8.61842 22.8119C8.61842 23.1052 8.61439 23.4146 8.61305 23.6042L8.609 23.993H9.95422L9.95691 23.6204C9.98112 21.6012 9.98247 21.5622 9.57219 21.3497C9.41614 21.269 9.23454 21.2501 9.06774 21.3039C7.3647 21.8165 5.98049 21.8043 5.06709 21.269C4.18599 20.7497 3.99227 19.9076 3.95596 19.7731C3.90752 19.6399 3.85506 19.5148 3.8026 19.3951C5.38994 21.2165 8.45432 20.3596 9.59371 19.8175C9.82912 19.7072 9.97844 19.4704 9.97844 19.2108C9.97844 17.3436 11.8321 16.1585 11.851 16.1464C12.0931 15.9944 12.2128 15.7065 12.1509 15.4294C12.0891 15.151 11.859 14.9411 11.5752 14.9075C8.77986 14.5725 5.92264 13.5408 5.92264 8.42763C5.92264 7.09857 6.34235 5.94034 7.16964 4.98794C7.33107 4.7996 7.37815 4.53729 7.28937 4.30592C7.16696 3.98845 6.83335 2.89614 7.28534 1.37068C7.73195 1.4218 8.6709 1.67469 10.1748 2.74952C10.3416 2.86924 10.5555 2.90422 10.7546 2.84772C11.7608 2.55312 12.8841 2.39438 13.9952 2.38765C15.1117 2.39438 16.2336 2.55312 17.2425 2.84772C17.4416 2.90422 17.6542 2.86924 17.8223 2.74952C19.337 1.66663 20.2773 1.4191 20.7064 1.36664C21.1625 2.89345 20.8289 3.98845 20.7064 4.30592C20.6163 4.53729 20.6634 4.80095 20.8262 4.98794C21.6521 5.93765 22.0705 7.09453 22.0705 8.42763C22.0705 13.5421 19.2065 14.5671 16.4058 14.8967C16.1435 14.9277 15.9229 15.1079 15.8435 15.3595C15.7628 15.6097 15.8368 15.8854 16.0319 16.063C16.1112 16.1343 16.2188 16.2191 16.3453 16.3159C16.9869 16.8069 18.0604 17.6288 18.0604 19.5605C18.0604 20.6286 18.0429 23.989 18.0429 23.989L19.3881 23.9957C19.3881 23.9957 19.4056 20.63 19.4056 19.5605C19.4056 17.7876 18.6994 16.6858 18.0201 15.9863C20.6499 15.381 23.4157 13.7049 23.4157 8.42763" fill="url(#paint0_linear_97_8)"/>
</g>
<defs>
<linearGradient id="paint0_linear_97_8" x1="0.599365" y1="12.0036" x2="23.4157" y2="12.0036" gradientUnits="userSpaceOnUse">
<stop stop-color="#302CF2"/>
<stop offset="1" stop-color="#5957D7"/>
</linearGradient>
<clipPath id="clip0_97_8">
<rect width="24" height="24" fill="white"/>
</clipPath>
</defs>
</svg>
