<svg width="24" height="24" viewBox="0 0 24 24" fill="none" xmlns="http://www.w3.org/2000/svg">
<path d="M23.2469 5.868V18.9037C23.2469 19.7505 22.5607 20.4375 21.7139 20.4375H18.1342V11.7472L11.9999 16.3492L5.86566 11.7472V20.4382H2.28666C1.43991 20.4382 0.753662 19.752 0.753662 18.9052V18.9045V5.86875C0.753662 4.59825 1.78341 3.56775 3.05391 3.56775C3.57441 3.56775 4.05441 3.741 4.43991 4.032L4.43391 4.0275L11.9999 9.70275L19.5659 4.0275C19.9454 3.74025 20.4254 3.56775 20.9459 3.56775C22.2164 3.56775 23.2469 4.5975 23.2469 5.868Z" fill="url(#paint0_linear_97_10)"/>
<defs>
<linearGradient id="paint0_linear_97_10" x1="0.753662" y1="12.003" x2="23.2469" y2="12.003" gradientUnits="userSpaceOnUse">
<stop stop-color="#302CF2"/>
<stop offset="1" stop-color="#5957D7"/>
</linearGradient>
</defs>
</svg>
