<svg width="24" height="24" viewBox="0 0 24 24" fill="none" xmlns="http://www.w3.org/2000/svg">
<path d="M11.8507 21.9095L16.3801 9.9638H18.4706L23 21.9095H20.9095L19.8394 18.8733H15.0113L13.9412 21.9095H11.8507ZM3.98643 18.9231L2.59276 17.5294L7.61991 12.5023C7.03922 11.9216 6.51244 11.2579 6.03959 10.5113C5.56674 9.76471 5.13122 8.91855 4.73303 7.97285H6.82353C7.15535 8.61991 7.48718 9.18401 7.819 9.66516C8.15083 10.1463 8.54902 10.6275 9.01357 11.1086C9.56109 10.5611 10.1293 9.79374 10.7183 8.80656C11.3073 7.81938 11.7511 6.87783 12.0498 5.9819H1V3.99095H7.96833V2H9.95928V3.99095H16.9276V5.9819H14.0407C13.6923 7.17647 13.1697 8.40422 12.4729 9.66516C11.776 10.9261 11.0875 11.8884 10.4072 12.552L12.7964 14.991L12.0498 17.0317L9.01357 13.9208L3.98643 18.9231ZM15.6335 17.1312H19.2172L17.4253 12.0543L15.6335 17.1312Z" fill="url(#paint0_linear_27_152)"/>
<defs>
<linearGradient id="paint0_linear_27_152" x1="1" y1="11.9548" x2="23" y2="11.9548" gradientUnits="userSpaceOnUse">
<stop stop-color="#302CF2"/>
<stop offset="1" stop-color="#5957D7"/>
</linearGradient>
</defs>
</svg>
