<svg width="24" height="24" viewBox="0 0 24 24" fill="none" xmlns="http://www.w3.org/2000/svg">
<g clip-path="url(#clip0_97_2)">
<path fill-rule="evenodd" clip-rule="evenodd" d="M5.46112 23.4478V7.9994H0.326953V23.4477H5.46112V23.4478ZM2.89458 5.89097C4.68441 5.89097 5.79933 4.70372 5.79933 3.22129C5.76548 1.70592 4.68441 0.552185 2.92814 0.552185C1.17159 0.552232 0.0234375 1.70597 0.0234375 3.22134C0.0234375 4.70376 1.13775 5.89101 2.86078 5.89101L2.89458 5.89097ZM8.30269 23.4478C8.30269 23.4478 8.37005 9.44887 8.30269 7.99945H13.4377V10.2398H13.4036C14.0788 9.18558 15.2952 7.63668 18.0648 7.63668C21.4438 7.63668 23.9765 9.84464 23.9765 14.5898V23.4478H18.8424V15.1834C18.8424 13.1068 18.0995 11.6897 16.241 11.6897C14.8228 11.6897 13.9777 12.645 13.6065 13.5685C13.4707 13.8972 13.4377 14.3588 13.4377 14.8206V23.4478H8.30269Z" fill="url(#paint0_linear_97_2)"/>
</g>
<defs>
<linearGradient id="paint0_linear_97_2" x1="0.0234375" y1="12" x2="23.9765" y2="12" gradientUnits="userSpaceOnUse">
<stop stop-color="#302CF2"/>
<stop offset="1" stop-color="#5957D7"/>
</linearGradient>
<clipPath id="clip0_97_2">
<rect width="24" height="24" fill="white"/>
</clipPath>
</defs>
</svg>
