<svg width="626" height="52" viewBox="0 0 626 52" fill="none" xmlns="http://www.w3.org/2000/svg">
<path d="M13.288 35.96C13.288 38.616 12.808 40.808 11.848 42.536C10.92 44.264 9.672 45.608 8.104 46.568C6.568 47.56 4.728 48.408 2.584 49.112L0.472 43.544C1.88 43 2.936 42.376 3.64 41.672C4.344 40.968 4.808 40.152 5.032 39.224C5.288 38.296 5.416 37.112 5.416 35.672V7.736H13.288V35.96ZM30.2504 14.696C34.1544 14.696 37.2104 15.896 39.4184 18.296C41.6264 20.664 42.7304 23.992 42.7304 28.28C42.7304 31 42.2184 33.384 41.1944 35.432C40.2024 37.448 38.7624 39.016 36.8744 40.136C35.0184 41.256 32.8104 41.816 30.2504 41.816C26.3784 41.816 23.3224 40.632 21.0824 38.264C18.8744 35.864 17.7704 32.52 17.7704 28.232C17.7704 25.512 18.2664 23.144 19.2584 21.128C20.2824 19.08 21.7224 17.496 23.5784 16.376C25.4664 15.256 27.6904 14.696 30.2504 14.696ZM30.2504 20.264C28.7144 20.264 27.5624 20.92 26.7944 22.232C26.0264 23.512 25.6424 25.512 25.6424 28.232C25.6424 31.016 26.0104 33.048 26.7464 34.328C27.5144 35.608 28.6824 36.248 30.2504 36.248C31.7864 36.248 32.9384 35.608 33.7064 34.328C34.4744 33.016 34.8584 31 34.8584 28.28C34.8584 25.496 34.4744 23.464 33.7064 22.184C32.9704 20.904 31.8184 20.264 30.2504 20.264ZM67.0289 33.608C67.0289 34.568 67.1569 35.272 67.4129 35.72C67.7009 36.168 68.1489 36.504 68.7569 36.728L67.1729 41.672C65.6049 41.544 64.3249 41.208 63.3329 40.664C62.3409 40.088 61.5729 39.192 61.0289 37.976C59.3649 40.536 56.8049 41.816 53.3489 41.816C50.8209 41.816 48.8049 41.08 47.3009 39.608C45.7969 38.136 45.0449 36.216 45.0449 33.848C45.0449 31.064 46.0689 28.936 48.1169 27.464C50.1649 25.992 53.1249 25.256 56.9969 25.256H59.5889V24.152C59.5889 22.648 59.2689 21.624 58.6289 21.08C57.9889 20.504 56.8689 20.216 55.2689 20.216C54.4369 20.216 53.4289 20.344 52.2449 20.6C51.0609 20.824 49.8449 21.144 48.5969 21.56L46.8689 16.568C48.4689 15.96 50.1009 15.496 51.7649 15.176C53.4609 14.856 55.0289 14.696 56.4689 14.696C60.1169 14.696 62.7889 15.448 64.4849 16.952C66.1809 18.456 67.0289 20.712 67.0289 23.72V33.608ZM55.5569 36.392C57.2849 36.392 58.6289 35.576 59.5889 33.944V29.432H57.7169C55.9889 29.432 54.6929 29.736 53.8289 30.344C52.9969 30.952 52.5809 31.896 52.5809 33.176C52.5809 34.2 52.8369 35 53.3489 35.576C53.8929 36.12 54.6289 36.392 55.5569 36.392ZM59.5889 10.52C58.8849 10.52 58.2769 10.408 57.7649 10.184C57.2529 9.96 56.6929 9.64 56.0849 9.224C55.2849 8.648 54.6289 8.36 54.1169 8.36C53.5729 8.36 53.1089 8.536 52.7249 8.888C52.3729 9.208 51.9889 9.736 51.5729 10.472L47.7809 8.648C48.4209 6.984 49.2689 5.624 50.3249 4.568C51.4129 3.512 52.6289 2.984 53.9729 2.984C54.7089 2.984 55.3329 3.112 55.8449 3.368C56.3889 3.592 56.9809 3.912 57.6209 4.328C58.0689 4.616 58.4209 4.824 58.6769 4.952C58.9649 5.08 59.2529 5.144 59.5409 5.144C60.0529 5.144 60.4849 4.984 60.8369 4.664C61.2209 4.312 61.6209 3.768 62.0369 3.032L65.8289 4.904C65.1569 6.6 64.2769 7.96 63.1889 8.984C62.1329 10.008 60.9329 10.52 59.5889 10.52ZM84.1098 14.696C88.0138 14.696 91.0698 15.896 93.2778 18.296C95.4858 20.664 96.5898 23.992 96.5898 28.28C96.5898 31 96.0778 33.384 95.0538 35.432C94.0618 37.448 92.6218 39.016 90.7338 40.136C88.8778 41.256 86.6698 41.816 84.1098 41.816C80.2378 41.816 77.1818 40.632 74.9418 38.264C72.7338 35.864 71.6298 32.52 71.6298 28.232C71.6298 25.512 72.1258 23.144 73.1178 21.128C74.1418 19.08 75.5818 17.496 77.4378 16.376C79.3258 15.256 81.5498 14.696 84.1098 14.696ZM84.1098 20.264C82.5738 20.264 81.4218 20.92 80.6538 22.232C79.8858 23.512 79.5018 25.512 79.5018 28.232C79.5018 31.016 79.8698 33.048 80.6058 34.328C81.3738 35.608 82.5418 36.248 84.1098 36.248C85.6458 36.248 86.7978 35.608 87.5658 34.328C88.3338 33.016 88.7178 31 88.7178 28.28C88.7178 25.496 88.3338 23.464 87.5658 22.184C86.8298 20.904 85.6778 20.264 84.1098 20.264ZM126.076 6.92C130.812 6.92 134.492 8.44 137.116 11.48C139.772 14.52 141.1 18.808 141.1 24.344C141.1 27.96 140.492 31.08 139.276 33.704C138.092 36.328 136.364 38.344 134.092 39.752C131.852 41.128 129.18 41.816 126.076 41.816C122.972 41.816 120.3 41.128 118.06 39.752C115.82 38.376 114.092 36.392 112.876 33.8C111.692 31.176 111.1 28.024 111.1 24.344C111.1 20.76 111.692 17.656 112.876 15.032C114.092 12.408 115.82 10.408 118.06 9.032C120.3 7.624 122.972 6.92 126.076 6.92ZM126.076 12.68C123.804 12.68 122.108 13.608 120.988 15.464C119.9 17.288 119.356 20.248 119.356 24.344C119.356 28.44 119.916 31.416 121.036 33.272C122.156 35.128 123.836 36.056 126.076 36.056C128.38 36.056 130.076 35.144 131.164 33.32C132.284 31.464 132.844 28.472 132.844 24.344C132.844 20.216 132.284 17.24 131.164 15.416C130.044 13.592 128.348 12.68 126.076 12.68ZM161.663 39.8C160.735 40.44 159.647 40.936 158.399 41.288C157.183 41.64 155.967 41.816 154.751 41.816C149.183 41.784 146.399 38.712 146.399 32.6V20.792H142.799V15.512H146.399V9.992L153.983 9.128V15.512H159.839L159.023 20.792H153.983V32.504C153.983 33.688 154.175 34.536 154.559 35.048C154.943 35.56 155.551 35.816 156.383 35.816C157.247 35.816 158.159 35.544 159.119 35L161.663 39.8ZM183.888 33.608C183.888 34.568 184.016 35.272 184.272 35.72C184.56 36.168 185.008 36.504 185.616 36.728L184.032 41.672C182.464 41.544 181.184 41.208 180.192 40.664C179.2 40.088 178.432 39.192 177.888 37.976C176.224 40.536 173.664 41.816 170.208 41.816C167.68 41.816 165.664 41.08 164.16 39.608C162.656 38.136 161.904 36.216 161.904 33.848C161.904 31.064 162.928 28.936 164.976 27.464C167.024 25.992 169.984 25.256 173.856 25.256H176.448V24.152C176.448 22.648 176.128 21.624 175.488 21.08C174.848 20.504 173.728 20.216 172.128 20.216C171.296 20.216 170.288 20.344 169.104 20.6C167.92 20.824 166.704 21.144 165.456 21.56L163.728 16.568C165.328 15.96 166.96 15.496 168.624 15.176C170.32 14.856 171.888 14.696 173.328 14.696C176.976 14.696 179.648 15.448 181.344 16.952C183.04 18.456 183.888 20.712 183.888 23.72V33.608ZM172.416 36.392C174.144 36.392 175.488 35.576 176.448 33.944V29.432H174.576C172.848 29.432 171.552 29.736 170.688 30.344C169.856 30.952 169.44 31.896 169.44 33.176C169.44 34.2 169.696 35 170.208 35.576C170.752 36.12 171.488 36.392 172.416 36.392ZM177.12 0.919998L180.096 6.584L168.768 11.144L166.656 7.256L177.12 0.919998ZM211.162 15.512L203.146 41H194.17L185.962 15.512H194.218L198.73 35.24L203.434 15.512H211.162ZM221.419 15.512V41H213.835V15.512H221.419ZM217.579 2.072C218.891 2.072 219.963 2.488 220.795 3.32C221.659 4.12 222.091 5.144 222.091 6.392C222.091 7.64 221.659 8.68 220.795 9.512C219.963 10.312 218.891 10.712 217.579 10.712C216.267 10.712 215.195 10.312 214.363 9.512C213.531 8.68 213.115 7.64 213.115 6.392C213.115 5.144 213.531 4.12 214.363 3.32C215.195 2.488 216.267 2.072 217.579 2.072ZM238.422 14.696C242.326 14.696 245.382 15.896 247.59 18.296C249.798 20.664 250.902 23.992 250.902 28.28C250.902 31 250.39 33.384 249.366 35.432C248.374 37.448 246.934 39.016 245.046 40.136C243.19 41.256 240.982 41.816 238.422 41.816C234.55 41.816 231.494 40.632 229.254 38.264C227.046 35.864 225.942 32.52 225.942 28.232C225.942 25.512 226.438 23.144 227.43 21.128C228.454 19.08 229.894 17.496 231.75 16.376C233.638 15.256 235.862 14.696 238.422 14.696ZM238.422 20.264C236.886 20.264 235.734 20.92 234.966 22.232C234.198 23.512 233.814 25.512 233.814 28.232C233.814 31.016 234.182 33.048 234.918 34.328C235.686 35.608 236.854 36.248 238.422 36.248C239.958 36.248 241.11 35.608 241.878 34.328C242.646 33.016 243.03 31 243.03 28.28C243.03 25.496 242.646 23.464 241.878 22.184C241.142 20.904 239.99 20.264 238.422 20.264ZM276.212 7.736C281.428 7.736 285.604 8.92 288.74 11.288C291.908 13.624 293.492 17.928 293.492 24.2C293.492 30.376 291.956 34.728 288.884 37.256C285.812 39.752 281.828 41 276.932 41H266.948V7.736H276.212ZM274.82 13.448V35.288H277.412C280.004 35.288 281.972 34.488 283.316 32.888C284.66 31.256 285.332 28.36 285.332 24.2C285.332 21.352 284.996 19.144 284.324 17.576C283.652 16.008 282.74 14.936 281.588 14.36C280.436 13.752 279.012 13.448 277.316 13.448H274.82ZM309.11 14.696C313.014 14.696 316.07 15.896 318.278 18.296C320.486 20.664 321.59 23.992 321.59 28.28C321.59 31 321.078 33.384 320.054 35.432C319.062 37.448 317.622 39.016 315.734 40.136C313.878 41.256 311.67 41.816 309.11 41.816C305.238 41.816 302.182 40.632 299.942 38.264C297.734 35.864 296.63 32.52 296.63 28.232C296.63 25.512 297.126 23.144 298.118 21.128C299.142 19.08 300.582 17.496 302.438 16.376C304.326 15.256 306.55 14.696 309.11 14.696ZM309.11 20.264C307.574 20.264 306.422 20.92 305.654 22.232C304.886 23.512 304.502 25.512 304.502 28.232C304.502 31.016 304.87 33.048 305.606 34.328C306.374 35.608 307.542 36.248 309.11 36.248C310.646 36.248 311.798 35.608 312.566 34.328C313.334 33.016 313.718 31 313.718 28.28C313.718 25.496 313.334 23.464 312.566 22.184C311.83 20.904 310.678 20.264 309.11 20.264ZM349.573 17C347.909 17.672 345.461 18.008 342.229 18.008C343.893 18.712 345.109 19.576 345.877 20.6C346.645 21.624 347.029 22.952 347.029 24.584C347.029 26.216 346.597 27.688 345.733 29C344.869 30.28 343.621 31.288 341.989 32.024C340.389 32.76 338.501 33.128 336.325 33.128C335.301 33.128 334.325 33.032 333.397 32.84C333.141 32.968 332.933 33.176 332.773 33.464C332.645 33.72 332.581 33.992 332.581 34.28C332.581 34.76 332.757 35.144 333.109 35.432C333.493 35.688 334.245 35.816 335.365 35.816H339.205C341.157 35.816 342.869 36.136 344.341 36.776C345.813 37.416 346.949 38.296 347.749 39.416C348.549 40.536 348.949 41.8 348.949 43.208C348.949 45.864 347.797 47.928 345.493 49.4C343.221 50.904 339.925 51.656 335.605 51.656C332.501 51.656 330.053 51.32 328.261 50.648C326.469 50.008 325.205 49.096 324.469 47.912C323.765 46.728 323.413 45.24 323.413 43.448H330.229C330.229 44.216 330.373 44.824 330.661 45.272C330.981 45.72 331.541 46.056 332.341 46.28C333.141 46.504 334.293 46.616 335.797 46.616C337.877 46.616 339.317 46.36 340.117 45.848C340.917 45.368 341.317 44.664 341.317 43.736C341.317 42.968 341.013 42.36 340.405 41.912C339.797 41.464 338.885 41.24 337.669 41.24H333.973C331.349 41.24 329.381 40.776 328.069 39.848C326.789 38.888 326.149 37.672 326.149 36.2C326.149 35.272 326.421 34.376 326.965 33.512C327.509 32.616 328.245 31.88 329.173 31.304C327.573 30.44 326.405 29.432 325.669 28.28C324.965 27.096 324.613 25.672 324.613 24.008C324.613 21.16 325.637 18.904 327.685 17.24C329.733 15.544 332.437 14.696 335.797 14.696C338.357 14.76 340.517 14.504 342.277 13.928C344.069 13.352 345.909 12.504 347.797 11.384L349.573 17ZM335.989 19.688C334.805 19.688 333.861 20.072 333.157 20.84C332.485 21.576 332.149 22.6 332.149 23.912C332.149 25.288 332.485 26.36 333.157 27.128C333.861 27.864 334.805 28.232 335.989 28.232C337.237 28.232 338.181 27.864 338.821 27.128C339.493 26.392 339.829 25.288 339.829 23.816C339.829 21.064 338.549 19.688 335.989 19.688ZM367.467 14.696C369.675 14.696 371.403 15.368 372.651 16.712C373.899 18.056 374.523 19.944 374.523 22.376V41H366.939V23.672C366.939 22.392 366.731 21.512 366.315 21.032C365.931 20.52 365.339 20.264 364.539 20.264C363.003 20.264 361.531 21.368 360.123 23.576V41H352.539V15.512H359.163L359.691 18.536C360.779 17.256 361.947 16.296 363.195 15.656C364.475 15.016 365.899 14.696 367.467 14.696ZM387.826 15.512V41H380.242V15.512H387.826ZM383.986 2.072C385.298 2.072 386.37 2.488 387.202 3.32C388.066 4.12 388.498 5.144 388.498 6.392C388.498 7.64 388.066 8.68 387.202 9.512C386.37 10.312 385.298 10.712 383.986 10.712C382.674 10.712 381.602 10.312 380.77 9.512C379.938 8.68 379.522 7.64 379.522 6.392C379.522 5.144 379.938 4.12 380.77 3.32C381.602 2.488 382.674 2.072 383.986 2.072ZM408.717 14.696C410.925 14.696 412.653 15.368 413.901 16.712C415.149 18.056 415.773 19.944 415.773 22.376V41H408.189V23.672C408.189 22.392 407.981 21.512 407.565 21.032C407.181 20.52 406.589 20.264 405.789 20.264C404.253 20.264 402.781 21.368 401.373 23.576V41H393.789V15.512H400.413L400.941 18.536C402.029 17.256 403.197 16.296 404.445 15.656C405.725 15.016 407.149 14.696 408.717 14.696ZM429.076 15.512V41H421.492V15.512H429.076ZM425.236 2.072C426.548 2.072 427.62 2.488 428.452 3.32C429.316 4.12 429.748 5.144 429.748 6.392C429.748 7.64 429.316 8.68 428.452 9.512C427.62 10.312 426.548 10.712 425.236 10.712C423.924 10.712 422.852 10.312 422.02 9.512C421.188 8.68 420.772 7.64 420.772 6.392C420.772 5.144 421.188 4.12 422.02 3.32C422.852 2.488 423.924 2.072 425.236 2.072ZM464.093 41L462.365 33.848H452.669L450.989 41H442.829L452.861 7.736H462.413L472.445 41H464.093ZM454.013 28.136H461.021L457.517 13.448L454.013 28.136ZM492.694 15.512V20.84L481.174 35.24H492.934L492.262 41H472.39V35.624L483.958 21.224H473.398V15.512H492.694ZM518.575 27.752C518.575 28.808 518.527 29.72 518.431 30.488H502.639C502.895 32.632 503.503 34.136 504.463 35C505.423 35.864 506.751 36.296 508.447 36.296C509.471 36.296 510.463 36.12 511.423 35.768C512.383 35.384 513.423 34.808 514.543 34.04L517.663 38.264C514.687 40.632 511.375 41.816 507.727 41.816C503.599 41.816 500.431 40.6 498.223 38.168C496.015 35.736 494.911 32.472 494.911 28.376C494.911 25.784 495.375 23.464 496.303 21.416C497.231 19.336 498.591 17.704 500.383 16.52C502.175 15.304 504.319 14.696 506.815 14.696C510.495 14.696 513.375 15.848 515.455 18.152C517.535 20.456 518.575 23.656 518.575 27.752ZM511.135 25.592C511.071 21.688 509.695 19.736 507.007 19.736C505.695 19.736 504.671 20.216 503.935 21.176C503.231 22.136 502.799 23.72 502.639 25.928H511.135V25.592ZM544.396 15.512L536.38 41H527.404L519.196 15.512H527.452L531.964 35.24L536.668 15.512H544.396ZM568.919 27.752C568.919 28.808 568.871 29.72 568.775 30.488H552.983C553.239 32.632 553.847 34.136 554.807 35C555.767 35.864 557.095 36.296 558.791 36.296C559.815 36.296 560.807 36.12 561.767 35.768C562.727 35.384 563.767 34.808 564.887 34.04L568.007 38.264C565.031 40.632 561.719 41.816 558.071 41.816C553.943 41.816 550.775 40.6 548.567 38.168C546.359 35.736 545.255 32.472 545.255 28.376C545.255 25.784 545.719 23.464 546.647 21.416C547.575 19.336 548.935 17.704 550.727 16.52C552.519 15.304 554.663 14.696 557.159 14.696C560.839 14.696 563.719 15.848 565.799 18.152C567.879 20.456 568.919 23.656 568.919 27.752ZM561.479 25.592C561.415 21.688 560.039 19.736 557.351 19.736C556.039 19.736 555.015 20.216 554.279 21.176C553.575 22.136 553.143 23.72 552.983 25.928H561.479V25.592ZM596.027 5.384V41H589.307L588.923 38.024C587.131 40.552 584.715 41.816 581.675 41.816C578.507 41.816 576.091 40.6 574.427 38.168C572.795 35.736 571.979 32.408 571.979 28.184C571.979 25.592 572.411 23.272 573.275 21.224C574.139 19.176 575.355 17.576 576.923 16.424C578.523 15.272 580.347 14.696 582.395 14.696C584.827 14.696 586.843 15.496 588.443 17.096V4.568L596.027 5.384ZM584.027 36.248C585.787 36.248 587.259 35.288 588.443 33.368V22.376C587.835 21.64 587.211 21.096 586.571 20.744C585.963 20.392 585.259 20.216 584.459 20.216C583.051 20.216 581.931 20.872 581.099 22.184C580.267 23.496 579.851 25.512 579.851 28.232C579.851 31.208 580.203 33.288 580.907 34.472C581.643 35.656 582.683 36.248 584.027 36.248ZM613 14.696C616.904 14.696 619.96 15.896 622.168 18.296C624.376 20.664 625.48 23.992 625.48 28.28C625.48 31 624.968 33.384 623.944 35.432C622.952 37.448 621.512 39.016 619.624 40.136C617.768 41.256 615.56 41.816 613 41.816C609.128 41.816 606.072 40.632 603.832 38.264C601.624 35.864 600.52 32.52 600.52 28.232C600.52 25.512 601.016 23.144 602.008 21.128C603.032 19.08 604.472 17.496 606.328 16.376C608.216 15.256 610.44 14.696 613 14.696ZM613 20.264C611.464 20.264 610.312 20.92 609.544 22.232C608.776 23.512 608.392 25.512 608.392 28.232C608.392 31.016 608.76 33.048 609.496 34.328C610.264 35.608 611.432 36.248 613 36.248C614.536 36.248 615.688 35.608 616.456 34.328C617.224 33.016 617.608 31 617.608 28.28C617.608 25.496 617.224 23.464 616.456 22.184C615.72 20.904 614.568 20.264 613 20.264Z" fill="#141414"/>
</svg>
